<?xml version="1.0" encoding="UTF-8" standalone="no"?>
<!DOCTYPE svg PUBLIC "-//W3C//DTD SVG 1.1//EN" "http://www.w3.org/Graphics/SVG/1.1/DTD/svg11.dtd">
<svg width="100%" height="100%" viewBox="0 0 100 100" version="1.1" xmlns="http://www.w3.org/2000/svg" xmlns:xlink="http://www.w3.org/1999/xlink" xml:space="preserve" xmlns:serif="http://www.serif.com/" style="fill-rule:evenodd;clip-rule:evenodd;stroke-linejoin:round;stroke-miterlimit:2;">
    <g id="Mesa-de-trabajo1" serif:id="Mesa de trabajo1" transform="matrix(1,0,0,1,0,-11.3663)">
        <rect x="0" y="11.366" width="100" height="100" style="fill:none;"/>
        <g transform="matrix(0.810073,0,0,0.810073,9.49637,20.8627)">
            <g>
                <path d="M90.2,11.4L74,11.4L74,7.5C74,5.5 72.4,3.8 70.3,3.8C68.3,3.8 66.6,5.4 66.6,7.5L66.6,11.4L33.3,11.4L33.3,7.5C33.3,5.5 31.7,3.8 29.6,3.8C27.5,3.8 26,5.5 26,7.5L26,11.4L9.8,11.4C5.8,11.4 2.5,14.7 2.5,18.7L2.5,88.9C2.5,92.9 5.8,96.2 9.8,96.2L90.2,96.2C94.2,96.2 97.5,92.9 97.5,88.9L97.5,18.7C97.5,14.7 94.2,11.4 90.2,11.4ZM31.4,80.4C31.4,81.3 30.6,82.1 29.7,82.1L18,82.1C17.1,82.1 16.3,81.4 16.3,80.4L16.3,72.6C16.3,71.7 17,70.9 18,70.9L29.7,70.9C30.6,70.9 31.4,71.7 31.4,72.6L31.4,80.4ZM31.4,58.1C31.4,59 30.6,59.8 29.7,59.8L18,59.8C17.1,59.8 16.3,59.1 16.3,58.1L16.3,50.3C16.3,49.4 17,48.6 18,48.6L29.7,48.6C30.6,48.6 31.4,49.3 31.4,50.3L31.4,58.1ZM57.6,80.4C57.6,81.3 56.8,82.1 55.9,82.1L44.2,82.1C43.3,82.1 42.5,81.4 42.5,80.4L42.5,72.6C42.5,71.7 43.2,70.9 44.2,70.9L55.9,70.9C56.8,70.9 57.6,71.7 57.6,72.6L57.6,80.4ZM57.6,58.1C57.6,59 56.8,59.8 55.9,59.8L44.2,59.8C43.3,59.8 42.5,59.1 42.5,58.1L42.5,50.3C42.5,49.4 43.2,48.6 44.2,48.6L55.9,48.6C56.8,48.6 57.6,49.3 57.6,50.3L57.6,58.1ZM83.7,80.4C83.7,81.3 82.9,82.1 82,82.1L70.3,82.1C69.4,82.1 68.6,81.4 68.6,80.4L68.6,72.6C68.6,71.7 69.3,70.9 70.3,70.9L82,70.9C82.9,70.9 83.7,71.7 83.7,72.6L83.7,80.4ZM83.7,58.1C83.7,59 82.9,59.8 82,59.8L70.3,59.8C69.4,59.8 68.6,59.1 68.6,58.1L68.6,50.3C68.6,49.4 69.3,48.6 70.3,48.6L82,48.6C82.9,48.6 83.7,49.3 83.7,50.3L83.7,58.1ZM90.3,35.3L9.8,35.3L9.8,18.7L26,18.7L26,22.7C26,24.7 27.6,26.4 29.7,26.4C31.8,26.4 33.4,24.8 33.4,22.7L33.4,18.7L66.8,18.7L66.8,22.7C66.8,24.7 68.4,26.4 70.5,26.4C72.5,26.4 74.2,24.8 74.2,22.7L74.2,18.7L90.3,18.7L90.3,35.3Z" style="fill:rgb(95,174,49);fill-rule:nonzero;"/>
            </g>
        </g>
    </g>
</svg>
