<svg width="21" height="24" viewBox="0 0 21 24" fill="none" xmlns="http://www.w3.org/2000/svg">
<path d="M14.0807 19.765C14.4248 19.765 14.7035 19.4863 14.7035 19.1422V8.54919C14.7035 8.20505 14.4248 7.92636 14.0807 7.92636C13.7366 7.92636 13.4579 8.20505 13.4579 8.54919V19.1422C13.4579 19.4863 13.7366 19.765 14.0807 19.765Z" fill="white" stroke="white" stroke-opacity="0.58" stroke-width="0.5"/>
<path d="M10.5495 19.765C10.8936 19.765 11.1723 19.4863 11.1723 19.1422V8.54919C11.1723 8.20505 10.8936 7.92636 10.5495 7.92636C10.2053 7.92636 9.92664 8.20505 9.92664 8.54919V19.1422C9.92664 19.4863 10.2053 19.765 10.5495 19.765Z" fill="white" stroke="white" stroke-opacity="0.58" stroke-width="0.5"/>
<path d="M7.01882 19.765C7.36295 19.765 7.64165 19.4863 7.64165 19.1422V8.54919C7.64165 8.20505 7.36295 7.92636 7.01882 7.92636C6.67469 7.92636 6.396 8.20505 6.396 8.54919V19.1422C6.396 19.4863 6.67436 19.765 7.01882 19.765Z" fill="white" stroke="white" stroke-opacity="0.58" stroke-width="0.5"/>
<path d="M12.3153 0.864685H8.78429C7.46755 0.864685 6.39563 1.85722 6.39563 3.0763V4.39502H1.72195C1.37781 4.39502 1.09912 4.67372 1.09912 5.01785C1.09912 5.36198 1.37781 5.64067 1.72195 5.64067H2.86495V20.9074C2.86495 22.2248 3.93621 23.2964 5.25295 23.2964H15.846C17.1634 23.2964 18.2349 22.2248 18.2349 20.9074V5.64067H19.3773C19.7214 5.64067 20.0001 5.36198 20.0001 5.01785C20.0001 4.67372 19.7214 4.39502 19.3773 4.39502H14.7036V3.0763C14.7036 1.85722 13.632 0.864685 12.3153 0.864685ZM7.64161 3.0763C7.64161 2.55312 8.16478 2.11034 8.78462 2.11034H12.3153C12.9351 2.11034 13.4583 2.55312 13.4583 3.0763V4.39502H7.64161V3.0763ZM16.9893 20.9074C16.9893 21.5375 16.4761 22.0507 15.846 22.0507H5.25295C4.62282 22.0507 4.11061 21.5375 4.11061 20.9074V5.64067H16.9893V20.9074Z" fill="white" stroke="white" stroke-opacity="0.58" stroke-width="0.5"/>
</svg>
