<?xml version="1.0" encoding="UTF-8" standalone="no"?>
<!DOCTYPE svg PUBLIC "-//W3C//DTD SVG 1.1//EN" "http://www.w3.org/Graphics/SVG/1.1/DTD/svg11.dtd">
<svg width="100%" height="100%" viewBox="0 0 100 100" version="1.1" xmlns="http://www.w3.org/2000/svg" xmlns:xlink="http://www.w3.org/1999/xlink" xml:space="preserve" xmlns:serif="http://www.serif.com/" style="fill-rule:evenodd;clip-rule:evenodd;stroke-linejoin:round;stroke-miterlimit:2;">
    <g id="Mesa-de-trabajo1" serif:id="Mesa de trabajo1" transform="matrix(1,0,0,1,0,-11.3663)">
        <rect x="0" y="11.366" width="100" height="100" style="fill:none;"/>
        <g transform="matrix(1.00277,0,0,1.00277,-0.138695,11.2276)">
            <path d="M50,90.051C50.901,88.824 51.885,87.462 52.934,85.986C56.419,81.081 59.904,75.92 63.154,70.748C65.256,67.403 67.19,64.161 68.922,61.059C74.597,50.894 77.791,42.77 77.791,37.74C77.791,22.392 65.348,9.949 50,9.949C34.652,9.949 22.209,22.392 22.209,37.74C22.209,42.77 25.403,50.894 31.078,61.059C32.81,64.161 34.744,67.403 36.846,70.748C40.096,75.92 43.581,81.081 47.066,85.986C48.115,87.462 49.099,88.824 50,90.051ZM50,21.964C58.707,21.964 65.776,29.033 65.776,37.74C65.776,46.447 58.707,53.516 50,53.516C41.293,53.516 34.224,46.447 34.224,37.74C34.224,29.033 41.293,21.964 50,21.964Z" style="fill:rgb(95,174,49);"/>
        </g>
    </g>
</svg>
