<svg width="18" height="24" viewBox="0 0 18 24" fill="none" xmlns="http://www.w3.org/2000/svg">
<path d="M8.64 1C12.9085 1 16.28 4.28185 16.28 8.2397C16.28 9.13469 15.9635 10.2739 15.3738 11.6028C14.7911 12.916 13.9788 14.3335 13.0703 15.7633C12.1633 17.1907 11.175 18.6082 10.2465 19.9245C10.1115 20.1158 9.97763 20.3053 9.84527 20.4926C9.4214 21.0924 9.01353 21.6695 8.64 22.2098C8.26648 21.6695 7.85862 21.0924 7.43476 20.4926C7.30239 20.3053 7.16847 20.1158 7.03354 19.9245C6.10503 18.6082 5.11666 17.1907 4.20971 15.7633C3.30121 14.3335 2.48888 12.916 1.90618 11.6028C1.31649 10.2739 1 9.13469 1 8.2397C1 4.28416 4.40049 1 8.64 1ZM13.2845 8.2397C13.2845 5.71467 11.1462 3.79401 8.64 3.79401C6.1594 3.79401 4.02691 5.72013 4.02691 8.2397C4.02691 10.7593 6.1594 12.6854 8.64 12.6854C11.1462 12.6854 13.2845 10.7647 13.2845 8.2397Z" stroke="#373737" stroke-width="2"/>
</svg>
