<svg width="52" height="56" viewBox="0 0 52 56" fill="none" xmlns="http://www.w3.org/2000/svg">
<path d="M25.6541 56C31.5858 55.9963 37.3331 53.9385 41.9191 50.1763C46.5051 46.4141 49.6467 41.1799 50.8098 35.3633C51.9729 29.5467 51.0857 23.5069 48.299 18.2705C45.5124 13.0341 40.9982 8.92439 35.5241 6.63998C35.2803 6.53023 35.0171 6.47045 34.7498 6.46417C34.4826 6.4579 34.2168 6.50526 33.9682 6.60346C33.7196 6.70166 33.4931 6.8487 33.3023 7.0359C33.1115 7.22309 32.9601 7.44664 32.8572 7.69333C32.7542 7.94002 32.7018 8.20484 32.7029 8.47215C32.704 8.73946 32.7588 9.00383 32.8638 9.24963C32.9689 9.49543 33.1221 9.71768 33.3145 9.90324C33.507 10.0888 33.7346 10.2339 33.9841 10.33C38.6063 12.2557 42.4185 15.7234 44.7722 20.1431C47.1258 24.5628 47.8754 29.6615 46.8935 34.5716C45.9116 39.4817 43.2588 43.9 39.3864 47.0746C35.5141 50.2492 30.6614 51.9841 25.6541 51.9841C20.6467 51.9841 15.7941 50.2492 11.9217 47.0746C8.04935 43.9 5.39653 39.4817 4.4146 34.5716C3.43268 29.6615 4.18231 24.5628 6.53594 20.1431C8.88958 15.7234 12.7018 12.2557 17.3241 10.33C17.5735 10.2339 17.8012 10.0888 17.9936 9.90324C18.186 9.71768 18.3393 9.49543 18.4443 9.24963C18.5494 9.00383 18.6041 8.73946 18.6052 8.47215C18.6064 8.20484 18.5539 7.94002 18.4509 7.69333C18.348 7.44664 18.1966 7.22309 18.0058 7.0359C17.815 6.8487 17.5886 6.70166 17.3399 6.60346C17.0913 6.50526 16.8255 6.4579 16.5583 6.46417C16.2911 6.47045 16.0278 6.53023 15.7841 6.63998C10.3099 8.92439 5.79577 13.0341 3.00911 18.2705C0.222461 23.5069 -0.664739 29.5467 0.498338 35.3633C1.66141 41.1799 4.80298 46.4141 9.38898 50.1763C13.975 53.9385 19.7224 55.9963 25.6541 56V56Z" fill="black"/>
<path d="M23.6541 2V28C23.6541 28.5304 23.8648 29.0391 24.2398 29.4142C24.6149 29.7893 25.1236 30 25.6541 30C26.1845 30 26.6932 29.7893 27.0683 29.4142C27.4433 29.0391 27.6541 28.5304 27.6541 28V2C27.6541 1.46957 27.4433 0.960859 27.0683 0.585786C26.6932 0.210714 26.1845 0 25.6541 0C25.1236 0 24.6149 0.210714 24.2398 0.585786C23.8648 0.960859 23.6541 1.46957 23.6541 2V2Z" fill="black"/>
</svg>
