<svg width="21" height="21" viewBox="0 0 21 21" fill="none" xmlns="http://www.w3.org/2000/svg">
<path d="M8.93565 16.7951C7.37173 16.8026 5.84078 16.3457 4.53686 15.4821C3.23295 14.6186 2.21478 13.3874 1.61141 11.9445C1.00805 10.5016 0.846655 8.91211 1.14769 7.37742C1.44873 5.84273 2.19864 4.43197 3.30238 3.32396C4.40611 2.21595 5.81396 1.46059 7.34748 1.15363C8.881 0.846659 10.4711 1.00191 11.9163 1.59969C13.3615 2.19748 14.5967 3.21088 15.4652 4.51145C16.3338 5.81202 16.7967 7.34119 16.7952 8.90512C16.7957 10.9926 15.9688 12.9951 14.4956 14.474C13.0224 15.9529 11.0231 16.7876 8.93565 16.7951ZM8.93565 2.52922C7.67347 2.52168 6.43748 2.88905 5.38433 3.58476C4.33118 4.28046 3.50829 5.27318 3.01996 6.43708C2.53164 7.60098 2.39986 8.88367 2.64133 10.1225C2.88281 11.3614 3.48666 12.5007 4.37636 13.396C5.26606 14.2913 6.40154 14.9023 7.63887 15.1516C8.87621 15.4008 10.1597 15.2771 11.3266 14.7961C12.4936 14.3151 13.4915 13.4985 14.1938 12.4497C14.8961 11.401 15.2712 10.1673 15.2716 8.90512C15.2751 7.21996 14.61 5.60221 13.4222 4.40688C12.2343 3.21155 10.6208 2.53627 8.93565 2.52922Z" fill="#373737" stroke="black" stroke-width="0.5"/>
<path d="M19.0207 20.0287L13.7614 14.7979L14.838 13.7213L20.0973 18.9502L19.0207 20.0287Z" fill="#373737" stroke="black" stroke-width="0.5"/>
</svg>
