<svg width="189" height="43" viewBox="0 0 189 43" fill="none" xmlns="http://www.w3.org/2000/svg">
<path d="M143.903 35.5064C144.231 35.8188 144.741 35.8372 145.092 35.5493C145.714 35.0395 146.677 34.2493 147.355 33.6926C147.556 33.5292 147.675 33.2869 147.683 33.0283C147.692 32.7696 147.59 32.5198 147.402 32.3429C146.86 31.8338 146.138 31.1538 145.638 30.6835C145.309 30.3732 145.261 29.8661 145.527 29.4999C146.88 27.5813 147.607 25.1909 147.607 22.542C147.607 15.9441 143.148 10.9524 135.698 10.9524C128.247 10.9524 123.788 15.9441 123.788 22.542C123.788 29.1399 128.247 34.1315 135.698 34.1315C137.587 34.1315 139.278 33.828 140.743 33.2427C141.071 33.1065 141.447 33.1766 141.704 33.421C142.272 33.9566 143.271 34.9061 143.903 35.5064ZM129.578 22.542C129.578 18.0261 131.954 15.2069 135.698 15.2069C139.441 15.2069 141.817 18.0261 141.817 22.542C141.817 27.5091 139.164 29.877 135.698 29.877C131.954 29.877 129.578 27.0586 129.578 22.542Z" fill="#373737"/>
<path d="M150.867 32.6078C150.867 32.9107 150.988 33.2013 151.202 33.415C151.416 33.6294 151.707 33.7499 152.009 33.7499C152.943 33.7499 154.258 33.7499 155.191 33.7499C155.494 33.7499 155.784 33.6294 155.999 33.415C156.212 33.2013 156.333 32.9107 156.333 32.6078C156.333 28.6419 156.333 15.4862 156.333 11.5195C156.333 11.2166 156.212 10.9267 155.999 10.7123C155.784 10.4986 155.494 10.3781 155.191 10.3781C154.258 10.3781 152.943 10.3781 152.009 10.3781C151.707 10.3781 151.416 10.4986 151.202 10.7123C150.988 10.9267 150.867 11.2166 150.867 11.5195C150.867 15.4862 150.867 28.6419 150.867 32.6078Z" fill="#373737"/>
<path d="M160.925 32.7883C160.925 33.3198 161.356 33.7507 161.887 33.7507C162.884 33.7507 164.432 33.7507 165.428 33.7507C165.959 33.7507 166.39 33.3198 166.39 32.7883C166.39 29.8575 166.39 21.0605 166.39 18.1298C166.39 17.5982 165.959 17.1674 165.428 17.1674C164.432 17.1674 162.884 17.1674 161.887 17.1674C161.356 17.1674 160.925 17.5982 160.925 18.1298C160.925 21.0605 160.925 29.8575 160.925 32.7883ZM160.925 13.7037C160.925 14.2353 161.356 14.6654 161.887 14.6654C162.884 14.6654 164.432 14.6654 165.428 14.6654C165.959 14.6654 166.39 14.2353 166.39 13.7037C166.39 13.0238 166.39 12.1165 166.39 11.4372C166.39 10.9057 165.959 10.4749 165.428 10.4749C164.432 10.4749 162.884 10.4749 161.887 10.4749C161.356 10.4749 160.925 10.9057 160.925 11.4372C160.925 12.1165 160.925 13.0238 160.925 13.7037Z" fill="#373737"/>
<path d="M170.818 10.3781C170.481 10.3781 170.208 10.651 170.208 10.988C170.208 14.2747 170.208 29.8534 170.208 33.1401C170.208 33.477 170.481 33.7499 170.818 33.7499C171.87 33.7499 174.012 33.7499 175.064 33.7499C175.226 33.7499 175.381 33.6852 175.495 33.5709C175.61 33.4566 175.673 33.3014 175.673 33.1401C175.673 32.2178 175.673 30.5088 175.673 29.8697C175.673 29.7097 175.737 29.5559 175.848 29.4423C176.255 29.0291 177.276 27.9912 177.909 27.3466C178.039 27.2146 178.222 27.1493 178.407 27.1683C178.591 27.1874 178.757 27.2888 178.857 27.4453C179.798 28.9093 182.071 32.4486 182.727 33.4695C182.839 33.6444 183.032 33.7499 183.24 33.7499C184.078 33.7499 186.307 33.7499 187.688 33.7499C187.914 33.7499 188.122 33.6247 188.228 33.4246C188.333 33.2245 188.319 32.9822 188.191 32.7957C186.704 30.6211 183.111 25.3701 182.075 23.8564C181.91 23.6155 181.939 23.2915 182.144 23.0839C183.06 22.1549 185.542 19.6386 186.957 18.2046C187.13 18.0296 187.18 17.7683 187.085 17.541C186.99 17.3143 186.768 17.1666 186.523 17.1666C185.021 17.1666 182.795 17.1666 182.028 17.1666C181.854 17.1666 181.689 17.2401 181.573 17.3694C180.863 18.163 178.235 21.0951 176.737 22.7661C176.569 22.9546 176.302 23.0193 176.066 22.9287C175.829 22.8389 175.673 22.6123 175.673 22.3591C175.673 19.3562 175.673 12.9822 175.673 10.988C175.673 10.651 175.401 10.3781 175.064 10.3781C174.012 10.3781 171.87 10.3781 170.818 10.3781Z" fill="#373737"/>
<path d="M55.4158 22.0501L54.8094 24.1682H60.0781L59.5098 22.0501C59.1558 20.8965 58.8148 19.6727 58.4861 18.3775C58.1574 17.0829 57.8293 15.8354 57.5006 14.6348H57.3488C57.0459 15.8592 56.7362 17.1122 56.4204 18.3952C56.1046 19.6781 55.7698 20.8965 55.4158 22.0501ZM47.6697 33.7016C47.392 33.7016 47.132 33.5682 46.97 33.3429C46.8081 33.1177 46.7645 32.8284 46.853 32.565C48.4102 27.9279 54.203 10.6804 54.203 10.6804H60.9118C60.9118 10.6804 66.7046 27.9279 68.2625 32.565C68.351 32.8284 68.3074 33.1177 68.1454 33.3429C67.9835 33.5682 67.7228 33.7016 67.4451 33.7016C66.2207 33.7016 64.3646 33.7016 63.3866 33.7016C62.9993 33.7016 62.6597 33.443 62.5562 33.07C62.1574 31.6298 61.2154 28.2288 61.2154 28.2288H53.6728C53.6728 28.2288 52.7301 31.6298 52.3313 33.07C52.2278 33.443 51.8882 33.7016 51.5009 33.7016C50.5664 33.7016 48.8363 33.7016 47.6697 33.7016Z" fill="#5FAE31"/>
<path d="M77.1282 41.15C76.0161 41.15 74.9863 41.0616 74.0389 40.8853C73.0915 40.7083 72.2577 40.4436 71.5376 40.091C70.8175 39.7378 70.2554 39.2783 69.8511 38.7134C69.4468 38.1485 69.2446 37.4781 69.2446 36.7008C69.2446 35.2886 70.1417 34.1118 71.9358 33.1705V33.0289C71.4301 32.7233 71.0129 32.3347 70.6848 31.8637C70.3561 31.3934 70.192 30.7931 70.192 30.0634C70.192 29.4277 70.3942 28.8213 70.7985 28.2448C71.2028 27.6683 71.7078 27.1797 72.3142 26.7795V26.6386C71.6574 26.2145 71.0701 25.6081 70.5521 24.82C70.0342 24.0311 69.7748 23.1191 69.7748 22.0832C69.7748 21.0241 69.9899 20.1005 70.4194 19.3117C70.8488 18.5235 71.424 17.864 72.1441 17.3345C72.8642 16.805 73.6918 16.4109 74.6263 16.1516C75.5615 15.893 76.5341 15.7636 77.5448 15.7636C78.6569 15.7636 79.6295 15.9045 80.4633 16.187C80.4633 16.187 85.0901 16.187 86.744 16.187C87.0646 16.187 87.3239 16.4463 87.3239 16.7669C87.3239 17.4774 87.3239 18.6746 87.3239 19.3852C87.3239 19.7058 87.0646 19.9651 86.744 19.9651C85.8735 19.9651 84.3299 19.9651 84.3299 19.9651C84.5068 20.2237 84.6518 20.5532 84.7655 20.9534C84.8791 21.3536 84.9363 21.7892 84.9363 22.2601C84.9363 23.2722 84.7464 24.1489 84.3673 24.8907C83.9889 25.6319 83.4641 26.2438 82.7944 26.7264C82.1254 27.2089 81.342 27.5683 80.4449 27.8031C79.5479 28.0386 78.5814 28.1563 77.5448 28.1563C76.8124 28.1563 76.0542 28.0386 75.2708 27.8031C75.0183 27.9916 74.8414 28.1802 74.7406 28.368C74.6392 28.5566 74.5889 28.8036 74.5889 29.1099C74.5889 29.5571 74.7971 29.8865 75.2143 30.0982C75.6309 30.3105 76.37 30.416 77.4311 30.416H80.4633C82.7883 30.416 84.5633 30.7631 85.7891 31.458C87.0142 32.1523 87.6275 33.2882 87.6275 34.8652C87.6275 35.7834 87.3811 36.6246 86.8883 37.3896C86.3955 38.1546 85.6945 38.8135 84.7845 39.3668C83.8746 39.9202 82.776 40.3558 81.4869 40.6736C80.1985 40.9908 78.7454 41.15 77.1282 41.15ZM77.5448 25.0139C78.2778 25.0139 78.8904 24.773 79.3831 24.2904C79.8759 23.8079 80.1223 23.0721 80.1223 22.0832C80.1223 21.1657 79.8759 20.4654 79.3831 19.9828C78.8904 19.5002 78.2778 19.2586 77.5448 19.2586C76.8124 19.2586 76.1999 19.4941 75.7071 19.9651C75.2143 20.4361 74.968 21.1419 74.968 22.0832C74.968 23.0721 75.2143 23.8079 75.7071 24.2904C76.1999 24.773 76.8124 25.0139 77.5448 25.0139ZM78.0001 37.9015C79.2633 37.9015 80.2993 37.6959 81.1078 37.2835C81.9164 36.8717 82.3207 36.3599 82.3207 35.748C82.3207 35.2062 82.0743 34.8414 81.5815 34.6535C81.0888 34.465 80.3755 34.3711 79.4403 34.3711H77.5073C76.8506 34.3711 76.3197 34.3534 75.9154 34.318C75.5111 34.2826 75.1572 34.2295 74.8543 34.1587C74.1716 34.7236 73.8306 35.3008 73.8306 35.8889C73.8306 36.5484 74.2098 37.0486 74.968 37.3896C75.7255 37.7306 76.7362 37.9015 78.0001 37.9015Z" fill="#5FAE31"/>
<path d="M90.6677 33.7C90.5261 33.7 90.39 33.6435 90.29 33.5434C90.1899 33.4434 90.1334 33.3073 90.1334 33.1657C90.1334 30.5725 90.1334 19.3144 90.1334 16.7213C90.1334 16.5797 90.1899 16.4436 90.29 16.3435C90.39 16.2435 90.5261 16.187 90.6677 16.187C91.5641 16.187 93.3568 16.187 94.2096 16.187C94.4792 16.187 94.7072 16.3878 94.7399 16.6559C94.846 17.5156 95.0611 19.2586 95.0611 19.2586H95.2129C95.8948 18.058 96.7164 17.1759 97.676 16.611C98.6364 16.0461 99.5967 15.7636 100.557 15.7636C101.087 15.7636 101.524 15.7929 101.865 15.8514C101.973 15.8705 102.078 15.8923 102.18 15.9168C102.527 16.0005 102.746 16.3435 102.674 16.6927C102.508 17.523 102.198 19.051 102.02 19.9304C101.947 20.2877 101.599 20.5198 101.241 20.4497C101.123 20.4266 101.009 20.4061 100.898 20.3884C100.595 20.3415 100.241 20.3183 99.837 20.3183C99.1291 20.3183 98.39 20.5532 97.6195 21.0241C96.8491 21.4951 96.2107 22.3309 95.7056 23.5309V33.1657C95.7056 33.4611 95.4661 33.7 95.1714 33.7C94.1069 33.7 91.7322 33.7 90.6677 33.7Z" fill="#5FAE31"/>
<path d="M112.072 34.1233C110.885 34.1233 109.735 33.9178 108.623 33.506C107.512 33.0936 106.532 32.4994 105.685 31.7228C104.839 30.9455 104.164 29.9865 103.658 28.8451C103.153 27.7031 102.9 26.4031 102.9 24.9431C102.9 23.4839 103.153 22.1832 103.658 21.0418C104.164 19.9004 104.839 18.9408 105.685 18.1642C106.532 17.3876 107.512 16.7934 108.623 16.381C109.735 15.9692 110.885 15.7636 112.072 15.7636C113.26 15.7636 114.403 15.9692 115.503 16.381C116.602 16.7934 117.574 17.3876 118.421 18.1642C119.268 18.9408 119.944 19.9004 120.449 21.0418C120.954 22.1832 121.207 23.4839 121.207 24.9431C121.207 26.4031 120.954 27.7031 120.449 28.8451C119.944 29.9865 119.268 30.9455 118.421 31.7228C117.574 32.4994 116.602 33.0936 115.503 33.506C114.403 33.9178 113.26 34.1233 112.072 34.1233ZM112.072 29.9219C113.21 29.9219 114.069 29.4747 114.65 28.5804C115.231 27.686 115.522 26.4732 115.522 24.9431C115.522 23.4131 115.231 22.2009 114.65 21.3066C114.069 20.4123 113.21 19.9651 112.072 19.9651C110.91 19.9651 110.045 20.4123 109.476 21.3066C108.907 22.2009 108.623 23.4131 108.623 24.9431C108.623 26.4732 108.907 27.686 109.476 28.5804C110.045 29.4747 110.91 29.9219 112.072 29.9219Z" fill="#5FAE31"/>
<path fill-rule="evenodd" clip-rule="evenodd" d="M6.71364 35.4445V42.1098C5.61375 42.1303 4.49685 42.1139 3.36566 42.0615C4.30083 39.7719 5.42182 37.5688 6.71364 35.4445ZM3.83121 16.7983C4.32262 16.3314 5.04407 16.2021 5.66616 16.4689C6.28893 16.7364 6.69253 17.3482 6.69253 18.0255C6.71363 23.2376 6.71364 32.6016 6.71364 32.6016C5.6682 34.1384 4.74255 35.7406 3.94623 37.4156C-1.81863 27.0389 -0.752087 21.0222 3.83121 16.7983Z" fill="#5FAE31" fill-opacity="0.7"/>
<path fill-rule="evenodd" clip-rule="evenodd" d="M15.2245 24.5937V41.1457C13.0771 41.6031 10.8338 41.9018 8.51086 42.0366V32.4889C10.4656 29.7228 12.7164 27.0963 15.2245 24.5937ZM12.8403 11.4632C13.3698 11.2386 13.9762 11.2944 14.4561 11.6122C14.9352 11.9294 15.2238 12.4664 15.2238 13.0409C15.2245 16.7462 15.2245 23.1903 15.2245 23.1903C12.7123 25.3138 10.4581 27.5666 8.51086 29.9835V14.5403C8.51086 13.895 8.87364 13.3043 9.44876 13.0116C10.5207 12.4753 11.656 11.9628 12.8403 11.4632Z" fill="#5FAE31" fill-opacity="0.8"/>
<path fill-rule="evenodd" clip-rule="evenodd" d="M24.121 17.1381V38.1971C22.0267 39.22 19.7813 40.0511 17.4073 40.68V22.7259C19.4962 20.7909 21.7408 18.9308 24.121 17.1381ZM21.8055 8.1117C22.3316 7.91432 22.9217 7.98783 23.3839 8.3084C23.8453 8.62897 24.121 9.15508 24.121 9.71727C24.121 12.5854 24.121 16.9196 24.121 16.9196C21.7449 18.4197 19.4989 19.9783 17.4073 21.6118V10.9369C17.4073 10.2216 17.8511 9.58184 18.5208 9.33069C19.5989 8.92844 20.6961 8.52415 21.8055 8.1117Z" fill="#5FAE31" fill-opacity="0.9"/>
<path fill-rule="evenodd" clip-rule="evenodd" d="M30.2148 4.69519C30.745 4.45765 31.3603 4.50462 31.8483 4.82043C32.3363 5.13623 32.631 5.67801 32.631 6.25925C32.6317 13.3493 32.6317 32.0036 32.6317 32.0036C30.6709 34.0094 28.418 35.7382 25.9181 37.1702V7.65112C25.9181 6.95144 26.3428 6.32256 26.9914 6.06052C28.0695 5.62424 29.1469 5.17094 30.2148 4.69519Z" fill="#5FAE31" fill-opacity="0.95"/>
<path fill-rule="evenodd" clip-rule="evenodd" d="M34.8159 3.91647C34.8159 3.29507 35.1521 2.72198 35.6953 2.4191C37.2627 1.56084 39.3679 0.468455 40.2078 0.0349011C40.2949 -0.0107004 40.3984 -0.0113843 40.4868 0.0314947C40.5746 0.0743737 40.6379 0.156046 40.6556 0.252694C42.984 12.5433 40.5338 22.6083 34.8159 29.7868V3.91647Z" fill="#5FAE31"/>
</svg>
